<svg id="Layer_1" height="512" viewBox="0 0 512 512" width="512" xmlns="http://www.w3.org/2000/svg" data-name="Layer 1"><g id="_Path_" data-name=" Path "><path d="m256 105.78c135.31 0 245 150.22 245 150.22s-109.69 150.22-245 150.22-245-150.22-245-150.22 109.69-150.22 245-150.22z" fill="#a0eaea"/></g><path d="m256 121.6a134.4 134.4 0 1 1 -134.4 134.4 134.4 134.4 0 0 1 134.4-134.4z" fill="#6d6d93"/><path d="m350.57 242.15v24.29l-23.57 3.74a71.689 71.689 0 0 1 -9.39 22.67l14.02 19.32-17.18 17.18-19.32-14.02a71.689 71.689 0 0 1 -22.67 9.39l-3.74 23.57h-24.29l-3.75-23.57a71.73 71.73 0 0 1 -22.66-9.39l-19.32 14.02-17.18-17.18 14.02-19.32a71.689 71.689 0 0 1 -9.39-22.67l-23.58-3.74v-24.29l23.58-3.75a71.785 71.785 0 0 1 9.39-22.67l-14.02-19.32 17.18-17.17 19.32 14.02a71.983 71.983 0 0 1 22.66-9.4l3.75-23.57h24.29l3.74 23.57a71.941 71.941 0 0 1 22.67 9.4l19.32-14.02 17.18 17.17-14.02 19.32a71.785 71.785 0 0 1 9.39 22.67z" fill="#6994fe"/><path d="m256.57 207.45a46.845 46.845 0 1 1 -46.84 46.84 46.841 46.841 0 0 1 46.84-46.84zm16.46 46.84a16.455 16.455 0 1 0 -16.46 16.46 16.459 16.459 0 0 0 16.46-16.46z" fill="#a1c0ff"/><path d="m42 256s101.414-138.854 229.5-149.544c-5.127-.428-10.292-.676-15.5-.676-135.31 0-245 150.22-245 150.22s109.69 150.22 245 150.22c5.208 0 10.373-.248 15.5-.676-128.086-10.69-229.5-149.544-229.5-149.544z" fill="#7eb7b6"/><g fill="#d4e1f4"><path d="m256 83.725a6 6 0 0 1 -6-6v-53.725a6 6 0 0 1 12 0v53.725a6 6 0 0 1 -6 6z"/><path d="m402.964 129.036a6 6 0 0 1 -4.243-10.243l41.924-41.923a6 6 0 0 1 8.485 8.485l-41.923 41.924a5.984 5.984 0 0 1 -4.243 1.757z"/><path d="m109.036 129.036a5.984 5.984 0 0 1 -4.243-1.757l-41.923-41.924a6 6 0 0 1 8.485-8.485l41.924 41.923a6 6 0 0 1 -4.243 10.243z"/><path d="m256 494a6 6 0 0 1 -6-6v-53.725a6 6 0 0 1 12 0v53.725a6 6 0 0 1 -6 6z"/><path d="m67.113 436.887a6 6 0 0 1 -4.243-10.242l41.923-41.924a6 6 0 0 1 8.486 8.486l-41.924 41.923a5.982 5.982 0 0 1 -4.242 1.757z"/><path d="m444.887 436.887a5.982 5.982 0 0 1 -4.242-1.757l-41.924-41.923a6 6 0 0 1 8.486-8.486l41.923 41.924a6 6 0 0 1 -4.243 10.242z"/></g><path d="m43.167 260.293a6 6 0 0 1 -4.567-9.893 505.991 505.991 0 0 1 39.292-41.126 6 6 0 1 1 8.19 8.77 493.927 493.927 0 0 0 -38.344 40.134 5.988 5.988 0 0 1 -4.571 2.115z" fill="#f4f8fc"/><path d="m97.321 205.967a6 6 0 0 1 -3.9-10.564q1.762-1.5 3.562-3.008a6 6 0 1 1 7.693 9.21q-1.751 1.463-3.465 2.926a5.979 5.979 0 0 1 -3.89 1.436z" fill="#f4f8fc"/></svg>